<svg xmlns="http://www.w3.org/2000/svg" width="1024" height="1024" viewBox="0 0 1024 1024">
  <!-- Blue background -->
  <rect width="1024" height="1024" fill="#1170C5"/>

  <!-- White droplet with 10% padding (102.4px margin on all sides) -->
  <!-- Original viewBox is 256x256, scaled to 819.2x819.2 (80% of 1024) -->
  <g transform="translate(102.4, 102.4) scale(3.2)">
    <path fill="#FFFFFF" d="M174,47.75a254.19,254.19,0,0,0-41.45-38.3,8,8,0,0,0-9.18,0A254.19,254.19,0,0,0,82,47.75C54.51,79.32,40,112.6,40,144a88,88,0,0,0,176,0C216,112.6,201.49,79.32,174,47.75Zm9.85,105.59a57.6,57.6,0,0,1-46.56,46.55A8.75,8.75,0,0,1,136,200a8,8,0,0,1-1.32-15.89c16.57-2.79,30.63-16.85,33.44-33.45a8,8,0,0,1,15.78,2.68Z"/>
  </g>
</svg>
